<?xml version="1.0" encoding="utf-8"?>
<!-- Generator: Adobe Illustrator 24.0.3, SVG Export Plug-In . SVG Version: 6.00 Build 0)  -->
<svg version="1.1" id="Layer_1" xmlns="http://www.w3.org/2000/svg" xmlns:xlink="http://www.w3.org/1999/xlink" x="0px" y="0px"
	 viewBox="0 0 250 250" style="enable-background:new 0 0 250 250;" xml:space="preserve">
<style type="text/css">
	.st0{fill:#FFFFFF;}
</style>
<g>
	<path class="st0" d="M143.127,96.673v16.853l9.208,10.077h20.501h17.027l9.208-10.077V96.673V84.511h-55.945V96.673z
		 M168.161,91.872c6.312,0,11.429,5.117,11.429,11.429c0,6.312-5.117,11.429-11.429,11.429c-6.312,0-11.429-5.117-11.429-11.429
		C156.732,96.99,161.849,91.872,168.161,91.872z"/>
	<path class="st0" d="M52.087,96.673v16.853l9.208,10.077h17.027h20.501l9.208-10.077V96.673V84.511H52.087V96.673z M81.295,91.872
		c6.312,0,11.429,5.117,11.429,11.429c0,6.312-5.117,11.429-11.429,11.429c-6.312,0-11.429-5.117-11.429-11.429
		C69.866,96.99,74.983,91.872,81.295,91.872z"/>
	<path class="st0" d="M227.867,54.729c-11.246-14.249-28.113-31.235-44.612-31.235c-5.005,0-10.051,3.428-16.861,9.841
		c-9.642-4.299-30.857-9.841-41.625-9.841c-10.777,0-31.992,5.546-41.625,9.841c-6.81-6.413-11.855-9.841-16.861-9.841
		c-16.498,0-33.367,16.986-44.611,31.235C13.293,65.346,0,85.308,0,93.676c0,15.717,0.508,22.772,13.257,39.77
		c9.731,12.975,10.763,31.875,17.289,42.138c4.271,6.715,10.711,9.392,18.134,7.537c7.396-1.849,12.199-8.085,14.327-18.563
		c8.232,11.338,6.846,18.002,7.389,21.859c0.548,14.69,25.682,39.826,54.373,39.826c28.643,0,53.824-25.11,54.373-39.826
		c0.541-3.837-0.891-10.511,7.383-21.89c2.176,10.743,7.808,19.169,18.807,19.169c20.615,0,17.175-31.884,30.95-50.249
		c12.749-16.998,13.257-24.053,13.257-39.77C249.538,85.308,236.245,65.346,227.867,54.729z M131.543,182.059
		c-2.161,0.36-4.404,0.556-6.709,0.556c-2.079,0-4.109-0.157-6.073-0.452c-11.434-3.821-20.603-18.153-20.603-25.791
		c0-20.589,53.693-20.589,53.693,0C151.851,163.946,142.809,178.1,131.543,182.059z M208.309,81.477v33.514
		c0,2.683-1.035,5.263-2.888,7.202l-7.653,8.008c-1.967,2.058-4.69,3.222-7.536,3.222h-41.376c-2.889,0-5.649-1.199-7.621-3.311
		l-10.212-10.941h-6.018h-6.018l-10.213,10.941c-1.972,2.112-4.731,3.311-7.621,3.311H59.777c-2.847,0-5.57-1.164-7.536-3.222
		l-7.653-8.008c-1.854-1.94-2.888-4.519-2.888-7.202V81.477v-6.652h24.706h58.598h58.598h24.706V81.477z"/>
</g>
</svg>
