<?xml version="1.0" encoding="utf-8"?>
<!-- Generator: Adobe Illustrator 24.0.3, SVG Export Plug-In . SVG Version: 6.00 Build 0)  -->
<svg version="1.1" id="Layer_1" xmlns="http://www.w3.org/2000/svg" xmlns:xlink="http://www.w3.org/1999/xlink" x="0px" y="0px"
	 viewBox="0 0 250 250" style="enable-background:new 0 0 250 250;" xml:space="preserve">
<style type="text/css">
	.st0{fill:#3A616F;}
	.st1{fill:#FFFFFF;}
</style>
<g>
	<g>
		<g>
			<path class="st0" d="M130.245,2.494c-3.57-2.017-9.385-1.97-12.922,0.104L21.41,58.841c-3.537,2.074-6.404,7.126-6.371,11.226
				l0.896,111.361c0.033,4.1,2.981,9.105,6.551,11.122l96.807,54.692c3.57,2.017,9.385,1.97,12.922-0.104l95.914-56.243
				c3.537-2.074,6.404-7.126,6.371-11.226l-0.896-111.361c-0.033-4.1-2.981-9.105-6.551-11.122L130.245,2.494z"/>
		</g>
	</g>
</g>
<g>
	<path class="st1" d="M84.453,112.02v9.544l5.215,5.707h9.643h11.61l5.215-5.707v-9.544v-6.888H84.453V112.02z M100.994,109.301
		c3.575,0,6.473,2.898,6.473,6.473c0,3.575-2.898,6.473-6.473,6.473c-3.575,0-6.473-2.898-6.473-6.473
		C94.521,112.199,97.419,109.301,100.994,109.301z"/>
	<path class="st1" d="M136.011,112.02v9.544l5.215,5.707h11.611h9.643l5.215-5.707v-9.544v-6.888h-31.683V112.02z M150.189,109.301
		c3.575,0,6.473,2.898,6.473,6.473c0,3.575-2.898,6.473-6.473,6.473c-3.575,0-6.473-2.898-6.473-6.473
		C143.716,112.199,146.614,109.301,150.189,109.301z"/>
	<path class="st1" d="M194.055,83.438c-7.468-9.462-18.669-20.742-29.625-20.742c-3.324,0-6.674,2.277-11.197,6.535
		c-6.403-2.855-20.491-6.535-27.642-6.535c-7.157,0-21.245,3.683-27.642,6.535c-4.522-4.258-7.872-6.535-11.197-6.535
		c-10.956,0-22.158,11.28-29.625,20.742c-5.564,7.05-14.392,20.307-14.392,25.864c0,10.437,0.338,15.122,8.804,26.41
		c6.462,8.616,7.147,21.167,11.481,27.983c2.836,4.459,7.113,6.237,12.042,5.005c4.912-1.228,8.101-5.369,9.514-12.327
		c5.466,7.529,4.547,11.955,4.907,14.515c0.364,9.755,17.055,26.447,36.107,26.447c19.021,0,35.742-16.674,36.107-26.447
		c0.359-2.548-0.592-6.98,4.903-14.536c1.445,7.134,5.185,12.729,12.489,12.729c13.69,0,11.406-21.173,20.553-33.368
		c8.466-11.288,8.804-15.973,8.804-26.41C208.446,103.744,199.619,90.488,194.055,83.438z M130.09,167.993
		c-1.435,0.239-2.925,0.369-4.455,0.369c-1.381,0-2.728-0.105-4.033-0.3c-7.593-2.538-13.682-12.055-13.682-17.127
		c0-13.673,35.655-13.673,35.655,0C143.576,155.965,137.572,165.365,130.09,167.993z M172.926,103.414v18.98
		c0,1.519-0.586,2.98-1.636,4.079l-4.334,4.535c-1.114,1.165-2.656,1.825-4.268,1.825h-23.433c-1.636,0-3.199-0.679-4.316-1.875
		l-5.784-6.196h-3.408h-3.408l-5.784,6.196c-1.117,1.196-2.679,1.875-4.316,1.875H88.808c-1.612,0-3.154-0.659-4.268-1.825
		l-4.334-4.535c-1.05-1.099-1.636-2.559-1.636-4.079v-18.98v-3.767h13.992h33.186h33.186h13.992V103.414z"/>
</g>
</svg>
